<svg xmlns="http://www.w3.org/2000/svg" viewBox="0 0 24 24">
  <path d="M23.955 13.587 22.613 9.452 19.95 1.263a.422.422 0 0 0-.802 0l-2.664 8.189H7.503L4.84 1.263a.423.423 0 0 0-.802 0L1.374 9.452.081 13.587a.423.423 0 0 0 .153.479l11.57 8.392 11.57-8.392a.422.422 0 0 0 .153-.479z" fill="#E24329"/>
  <path d="m12.524 22.458 4.683-14.42H7.503l4.682 14.42z" fill="#FC6D26"/>
  <path d="M12.524 22.458 7.503 8.038H4.84l7.684 14.42z" fill="#FCA326"/>
  <path d="m12.524 22.458 7.684-14.42h-2.664l-4.683 14.42z" fill="#FCA326"/>
  <path d="M12.524 22.458 7.503 8.038H4.84l7.684 14.42z" fill="#FCA326"/>
  <path d="M12.524 22.458 4.84 8.038l-4.759 5.549a.423.423 0 0 0 .153.479l11.57 8.392z" fill="#E24329"/>
  <path d="M12.524 22.458 19.95 8.038l4.005 5.549a.423.423 0 0 1-.153.479l-11.57 8.392z" fill="#E24329"/>
</svg>
