<svg xmlns="http://www.w3.org/2000/svg" viewBox="0 0 24 24">
  <path d="M11.571 11.513H0a5.218 5.218 0 0 0 5.232 5.215h2.13v2.057A5.215 5.215 0 0 0 12.575 24V12.518a1.005 1.005 0 0 0-1.005-1.005z" fill="#2684FF"/>
  <path d="M17.294 5.757H5.736a5.215 5.215 0 0 0 5.215 5.214h2.129v2.058a5.217 5.217 0 0 0 5.215 5.214V6.758a1.001 1.001 0 0 0-1.001-1.001z" fill="#2684FF"/>
  <path d="M23.013 0H11.455a5.215 5.215 0 0 0 5.215 5.215h2.129v2.057A5.215 5.215 0 0 0 24 12.483V1.005A1.005 1.005 0 0 0 23.013 0z" fill="#2684FF"/>
  <linearGradient id="jiraGradient" x1="0%" y1="0%" x2="0%" y2="100%">
    <stop offset="0%" style="stop-color:#2684FF;stop-opacity:1" />
    <stop offset="100%" style="stop-color:#0052CC;stop-opacity:1" />
  </linearGradient>
</svg>
